<svg xmlns="http://www.w3.org/2000/svg" fill-rule="evenodd" clip-rule="evenodd" image-rendering="optimizeQuality" shape-rendering="geometricPrecision" text-rendering="geometricPrecision" viewBox="0 0 50 50"><path fill="#484544" stroke="#282828" stroke-width="1.3" d="M18.3 16.6c0 1.77.8 3.47 2.2 4.7l-4.08 2.16.48 4.08h4.2c-1.85 8.6-10.63 7.15-10.45 16.68h28.7c.17-9.53-8.6-8.09-10.45-16.68h4.2l.47-4.08-4.07-2.16a6.3 6.3 0 0 0 2.2-4.7c0-3.47-2.94-6.08-6.7-6.08-3.77 0-6.7 2.61-6.7 6.07z"/><path d="M25 10.8c-.67 0-1.3.08-1.9.23 2.81.71 4.81 2.99 4.81 5.84 0 1.78-.8 3.48-2.2 4.72l5.04 2.15.4 3.27h1.94l.48-3.27-4.07-2.15a6.3 6.3 0 0 0 2.19-4.72c0-3.46-2.93-6.07-6.7-6.07zm.12 16.5c1.84 8.58 10.62 7.67 10.44 17.2h3.78c.18-9.53-8.6-8.62-10.44-17.2z" opacity=".3"/></svg>