<svg xmlns="http://www.w3.org/2000/svg" fill-rule="evenodd" clip-rule="evenodd" image-rendering="optimizeQuality" shape-rendering="geometricPrecision" text-rendering="geometricPrecision" viewBox="0 0 50 50"><path fill="#ebebeb" stroke="#3c3c3c" stroke-width="1.3" d="M27.16 6.42c-1.7-1.63-7.59-.11-4.89 5.75-11.48 9.43-10.66 16.72-4.8 23.64h15.04c7.06-6.15 5.9-15.55-2.67-22.48-2.37 5.61-2.87 9.43-3.63 12.52h-3.1c-.27-4.05 1.74-8.73 3.08-13.2.5-2 1.07-4.2.97-6.23zM14.6 35.81S11 37.3 10 39.6v4.56c10 .18 20 .07 30 0V39.6c-1-2.3-4.6-3.78-4.6-3.78z"/><path d="M29.83 13.33a49.66 49.66 0 0 0-1.41 3.44c5.23 6.38 5.14 13.86-.8 19.04h2.88s3.6 1.48 4.6 3.78v4.55s4.76-.01 0 0H40V39.6c-1.01-2.3-4.6-3.78-4.6-3.78h-2.9c7.07-6.16 5.9-15.55-2.67-22.48z" opacity=".3"/></svg>