<svg xmlns="http://www.w3.org/2000/svg" fill-rule="evenodd" clip-rule="evenodd" image-rendering="optimizeQuality" shape-rendering="geometricPrecision" text-rendering="geometricPrecision" viewBox="0 0 50 50"><path fill="#ebebeb" stroke="#3c3c3c" stroke-width="1.3" d="M22.74 5.85v3.32H19.3v4.4h3.24L22 17.11c-6.4-2.8-12.27-1.3-14.5 3.24-2.35 6.64 3.42 10.94 7.77 15.45h19.48c4.36-4.51 10.13-8.8 7.78-15.45-2.24-4.55-8.1-6.04-14.5-3.24l-.57-3.54h3.25v-4.4h-3.43V5.85zm-7 16.14c1.34-.06 4.5.46 5.77 1.27l-1.06 6.94c-3.55.57-8.07-3.65-7.57-5.99.38-1.51 1.5-2.16 2.85-2.22zm18.54 0c1.34.07 2.47.7 2.85 2.22-.07 4.03-4.12 5.99-7.58 5.99l-1.06-6.94c1.28-.81 4.44-1.33 5.79-1.27zM14.43 35.82s-3.59 1.48-4.6 3.78v4.54c10 .18 19.98.07 29.96 0V39.6c-1-2.3-4.59-3.78-4.59-3.78z"/><path d="M33.76 15.78c-.65.03-1.32.11-2 .24a8.24 8.24 0 0 1 5.87 4.4c2.35 6.65-3.42 10.95-7.78 15.46h.48s3.59 1.48 4.6 3.77v4.55h4.88v-4.55c-1.01-2.3-4.6-3.77-4.6-3.77h-.47c4.35-4.51 10.12-8.81 7.78-15.45-1.54-3.13-4.8-4.81-8.76-4.65z" opacity=".3"/></svg>