<svg xmlns="http://www.w3.org/2000/svg" fill-rule="evenodd" clip-rule="evenodd" image-rendering="optimizeQuality" shape-rendering="geometricPrecision" text-rendering="geometricPrecision" viewBox="0 0 50 50"><path fill="#ebebeb" stroke="#3c3c3c" stroke-width="1.3" d="m20.63 5.72-1.9.36-1.12 4.03-3.15 3.3c-1.67 1.76-.62 4.73-5.96 10.16-.55 4.26.7 4.42 4.65 5.98 1.93.95 2.08-4.03 7.41-4.52 2.37-.94 2.52-1.58 4.22-3.56.53 5.44-6.92 7.9-8.43 14.3h20.4C40.26 23.55 39.97 11.7 23.9 9.38zM20 14.25a.1.1 0 0 1 .07.03c.3.14.33 2.92.33 2.92s-3.27.84-3.5.84c-.47-.23 2.24-3.87 3.1-3.79zm-3.95 21.52s-3.61 1.49-4.63 3.8v4.56c10.07.18 20.13.07 30.2 0v-4.57c-1.01-2.3-4.63-3.79-4.63-3.79z"/><path d="m20.63 5.72-1.9.36 3.1 4.06c16.07 2.32 13.51 13.41 9.99 25.63h.27s3.62 1.48 4.63 3.79v4.56s4.79-.01 0 0h4.92v-4.56c-1.01-2.3-4.63-3.8-4.63-3.8h-.27c3.53-12.2 3.24-24.06-12.84-26.37z" opacity=".3"/></svg>