<svg xmlns="http://www.w3.org/2000/svg" fill-rule="evenodd" clip-rule="evenodd" image-rendering="optimizeQuality" shape-rendering="geometricPrecision" text-rendering="geometricPrecision" viewBox="0 0 50 50"><path fill="#ebebeb" stroke="#3c3c3c" stroke-width="1.3" d="M19.25 5.92a4.15 4.15 0 0 0-4.18 4.12 4.15 4.15 0 0 0 3.11 4v8.08l-5.12-2.47a4.1 4.1 0 0 0 .71-2.3 4.15 4.15 0 0 0-4.17-4.13 4.15 4.15 0 0 0-4.18 4.12 4.15 4.15 0 0 0 4.79 4.08l5.73 14.43 9.06-.04 9.06.04 5.73-14.43a4.15 4.15 0 0 0 4.79-4.08 4.15 4.15 0 0 0-4.17-4.12 4.15 4.15 0 0 0-4.18 4.12c0 .82.25 1.63.71 2.3l-5.12 2.48v-8.09a4.14 4.14 0 0 0 3.11-3.99 4.15 4.15 0 0 0-4.18-4.12 4.11 4.11 0 0 0-2.39 7.5L25 20.24l-3.36-6.82a4.11 4.11 0 0 0-2.4-7.5z"/><path fill="#ebebeb" stroke="#3c3c3c" stroke-width="1.3" d="M14.62 35.81s-3.58 1.48-4.59 3.77v4.55c9.98.18 19.96.07 29.94 0v-4.55c-1-2.29-4.59-3.77-4.59-3.77z"/><path d="M29.2 35.81h1.3s3.59 1.48 4.59 3.77v4.55s-7.46.08 4.88 0v-4.55c-1-2.29-4.59-3.77-4.59-3.77h-1.3l5.71-14.38C38.76 20.2 29.25 35.69 29.2 35.8z" opacity=".3"/></svg>