<svg xmlns="http://www.w3.org/2000/svg" fill-rule="evenodd" clip-rule="evenodd" image-rendering="optimizeQuality" shape-rendering="geometricPrecision" text-rendering="geometricPrecision" viewBox="0 0 50 50"><g fill="#ebebeb" stroke="#3c3c3c" stroke-width="1.3"><path d="m17.16 18.11-2.02 17.67h19.72l-1.7-17.66"/><path d="m22.43 5.73-.63 3.73-3.32-.33-.58-3.18-4.77 1.02v8.06c.83 2.16 1.93 2.53 2.97 3.1h18.1c1.05-.56 2.15-.93 2.97-3.1V6.99L32.4 5.96l-.57 3.18-3.32.33-.63-3.73zm-7.94 30.06s-3.62 1.48-4.64 3.78v4.57c10.09.18 20.17.07 30.26 0v-4.57c-1.02-2.3-4.64-3.78-4.64-3.78z"/></g><path d="m32.72 5.94-.17 1.67v7.42c-.82 2.16-1.92 2.52-2.96 3.1l.64 17.65h.63s3.63 1.49 4.64 3.79v4.56h4.94v-4.56c-1.02-2.3-4.64-3.79-4.64-3.79h-.63l-2.02-17.65c1.04-.58 3.51-.94 4.34-3.1V6.97z" opacity=".3"/></svg>