<svg xmlns="http://www.w3.org/2000/svg" viewBox="0 0 500 500"><path fill="#ec8703" stroke="#000" stroke-width=".7" d="M-1.88-1.88h503.76v503.76H-1.88z"/><path fill="#353434" d="m373.35 375.72-1.88 7.75h-217.2l.5-2.6c1.4-7.5 5.31-15.24 14.21-28.17 15.84-23.02 32.75-43.77 53.54-65.67 20.05-21.12 29.33-39.44 32.4-64.02.4-3.15.4-3.15-.82-1.44-3.05 4.29-7.9 8.36-11.81 9.94-3.9 1.57-4.97 1.66-20.24 1.71-18.53.06-20.53.47-28.28 5.74-6.54 4.46-10.5 7.8-19.56 16.5-9.44 9.06-13.16 11.09-21.2 11.55-6.72.4-12.4-.99-20.67-5.05-14.43-7.1-22.98-16.25-25.3-27.14-1.11-5.52-.48-9.97 2.18-15.21 1.75-3.54 19.27-32.67 28.24-47 2.8-4.42 5.81-10.1 6.72-12.62.92-2.53 3.02-8.38 4.63-13a125.54 125.54 0 0 1 25.73-43.3c5.93-6.58 7.1-8.32 9.02-13.32 8.71-22.69 16.69-42.46 17.94-44.49 1.75-2.82 5.12-5.06 7.6-5.03 3.14.04 6.98 3.61 19.87 18.5L241.67 74l9.11 1.65c32.96 5.94 62.54 18.72 84.43 36.45 6.86 5.54 19.66 18.76 24.63 25.42 13.49 18.08 23.86 44.1 27.5 69.01 6.56 44.81 1.58 105.09-13.99 169.18Zm19.67 48.04.46 35.39H129.12l.42-34.69 2.24-4.64c3.58-7.56 8.97-12.51 16.4-15.08 2.31-.78 22.3-.95 113-.98 110.05-.04 110.23-.04 114.13 1.42 7.08 2.65 11.57 6.87 15.7 14.73l2.01 3.85Z"/></svg>